<svg width="4000" height="4000" viewBox="0 0 4000 4000" fill="none" xmlns="http://www.w3.org/2000/svg">
<rect width="4000" height="4000" rx="700" fill="#FFC99A"/>
<path fill-rule="evenodd" clip-rule="evenodd" d="M3080.32 2095.83L3080.34 2095.81C3081.94 2093.13 3083.55 2090.43 3085.17 2087.72C3083.55 2090.44 3081.93 2093.14 3080.32 2095.83Z" fill="#1D1F1E"/>
<path d="M3120.6 2027.8L3120.51 2028.98C3108.25 2049.12 3096.51 2068.73 3085.17 2087.72L3080.34 2095.81L3080.32 2095.83C2966.12 2287.11 2891.02 2412.89 2723.63 2376.72C2596.78 2361.99 2532.43 2380.99 2429.64 2454C2398.26 2276.69 2371.66 2180.44 2253.25 2033.81C2244.53 1951.27 2266.97 1905.75 2351.25 1830.96C2525.99 1841.25 2583.47 1769.5 2635.43 1546C2783.52 1743.12 2661.97 1964.52 2620.73 1990.34C2579.5 2016.16 2854.97 1932.47 2953.92 1826.13L3032.31 1695.72C3102.9 1609.84 3155.98 1588.81 3267.5 1584.64C3145.14 1704.06 3138.64 1789.86 3120.6 2027.8Z" fill="#1D1F1E"/>
<path fill-rule="evenodd" clip-rule="evenodd" d="M919.675 2095.83L919.664 2095.81C918.062 2093.13 916.452 2090.43 914.835 2087.72C916.455 2090.44 918.07 2093.14 919.675 2095.83Z" fill="#1D1F1E"/>
<path d="M879.403 2027.8L879.492 2028.98C891.752 2049.12 903.492 2068.73 914.835 2087.72L919.664 2095.81L919.675 2095.83C1033.88 2287.11 1108.98 2412.89 1276.37 2376.72C1403.22 2361.99 1467.57 2380.99 1570.36 2454C1601.74 2276.69 1628.34 2180.44 1746.75 2033.81C1755.47 1951.27 1733.03 1905.75 1648.75 1830.96C1474.01 1841.25 1416.53 1769.5 1364.57 1546C1216.48 1743.12 1338.03 1964.52 1379.27 1990.34C1420.5 2016.16 1145.03 1932.47 1046.08 1826.13L967.687 1695.72C897.096 1609.84 844.021 1588.81 732.5 1584.64C854.855 1704.06 861.361 1789.86 879.403 2027.8Z" fill="#1D1F1E"/>
</svg>
