<svg width="136" viewBox="0 0 136 60" fill="none" xmlns="http://www.w3.org/2000/svg">
<path d="M23.4622 39.4135H24.3276L23.1256 60H0V58.4164C3.077 58.4164 3.70202 56.7449 3.70202 52.1701V7.39003C3.70202 3.43109 3.02893 1.23167 0 1.58358V0H14.3273V1.58358C11.1061 1.31965 10.3368 2.90322 10.3368 7.39003V51.4663C10.3368 55.6891 11.0099 56.7449 12.8369 56.7449C18.7024 56.7449 21.2986 54.0176 23.4622 39.4135Z" fill="#E6EDF3"/>
<path d="M26.058 0H38.5583V1.58358C36.6833 1.40763 35.5775 2.99121 35.5775 7.21408V52.346C35.5775 56.5689 36.2506 58.4164 38.5583 58.4164V60H26.058V58.4164C28.0773 58.5044 28.9427 56.6569 28.9427 52.434V7.56598C28.9427 4.31085 28.5581 1.4956 26.058 1.58358V0Z" fill="#E6EDF3"/>
<path d="M63.5586 39.4135H64.424L63.2221 60H40.0965V58.4164C43.1735 58.4164 43.7985 56.7449 43.7985 52.1701V7.39003C43.7985 3.43109 43.1254 1.23167 40.0965 1.58358V0H54.4238V1.58358C51.2025 1.31965 50.4333 2.90322 50.4333 7.39003V51.4663C50.4333 55.6891 51.1064 56.7449 52.9333 56.7449C58.7989 56.7449 61.3951 54.0176 63.5586 39.4135Z" fill="#E6EDF3"/>
<path d="M66.1545 0H78.6548V1.58358C76.7797 1.40763 75.674 2.99121 75.674 7.21408V52.346C75.674 56.5689 76.347 58.4164 78.6548 58.4164V60H66.1545V58.4164C68.1738 58.5044 69.0392 56.6569 69.0392 52.434V7.56598C69.0392 4.31085 68.6545 1.4956 66.1545 1.58358V0Z" fill="#E6EDF3"/>
<path d="M81.443 15.8358H80.5776V0H104.328V15.8358H103.463C102.886 6.33431 101.155 3.25513 95.7703 3.25513V52.2581C95.7703 56.7449 96.3953 58.6804 99.3761 58.4164V60H85.5296V58.4164C88.3181 58.7683 89.1355 56.7449 89.1355 52.522V3.25513C84.1353 3.25513 81.9718 5.19062 81.443 15.8358Z" fill="#E6EDF3"/>
<path d="M109.568 7.30205C109.568 3.60704 108.847 1.40763 106.443 1.58358V0H119.328V1.58358C117.02 1.4956 116.203 3.25513 116.203 7.21408V27.1847H125.867V7.65396C125.867 3.60704 125.386 1.4956 122.742 1.58358V0H135.579V1.58358C133.511 1.4956 132.502 2.90323 132.502 7.30205V52.0821C132.502 56.305 133.03 58.4164 135.579 58.4164V60H122.742V58.4164C125.242 58.5924 125.867 56.393 125.867 52.0821V30.9677H116.203V52.346C116.203 57.0968 117.117 58.4164 119.328 58.4164V60H106.443V58.4164C108.751 58.5044 109.568 56.8328 109.568 52.6979V7.30205Z" fill="#E6EDF3"/>
</svg>
